<svg id="visual" viewBox="0 0 900 600" width="900" height="600" xmlns="http://www.w3.org/2000/svg" xmlns:xlink="http://www.w3.org/1999/xlink" version="1.1"><rect x="0" y="0" width="900" height="600" fill="#c6c6c6"></rect><path d="M0 440L180 409L360 428L540 414L720 434L900 419L900 601L720 601L540 601L360 601L180 601L0 601Z" fill="#827878"></path><path d="M0 431L180 464L360 445L540 458L720 490L900 473L900 601L720 601L540 601L360 601L180 601L0 601Z" fill="#816665"></path><path d="M0 505L180 511L360 498L540 468L720 464L900 517L900 601L720 601L540 601L360 601L180 601L0 601Z" fill="#7e5453"></path><path d="M0 535L180 536L360 510L540 532L720 508L900 510L900 601L720 601L540 601L360 601L180 601L0 601Z" fill="#7a423f"></path><path d="M0 518L180 522L360 548L540 532L720 560L900 527L900 601L720 601L540 601L360 601L180 601L0 601Z" fill="#742f2c"></path><path d="M0 562L180 570L360 557L540 566L720 557L900 559L900 601L720 601L540 601L360 601L180 601L0 601Z" fill="#6c1919"></path></svg>